# xmcd
#
# Track frame offsets:
# 150
# 16782
# 33105
# 46870
# 62847
# 76245
# 89837
# 106387
# 122700
# 137675
# 157500
# 169387
# 187202
# 207910
#
# Disc length: 2969 seconds
#
# Revision: 1
# Processed by: cddbd v1.4PL0 Copyright (c) Steve Scherf et al.
# Submitted via: Easy CD Ripper 1.45
#
DISCID=b40b970e
DTITLE=Richard LeBouef And Two Step - The Little Hours Of The Night
DYEAR=1995
DGENRE=Other
TTITLE0=The World Is Ending
TTITLE1=Richard LeBouef And Two Step - The Seasons Of Our Lives
TTITLE2=Richard LeBouef And Two Step - I'm Going To Louisiana
TTITLE3=Richard LeBouef And Two Step - Bayou Teche Waltz
TTITLE4=Richard LeBouef And Two Step - Pretty Little Darling
TTITLE5=Richard LeBouef And Two Step - Flower Of My Life
TTITLE6=Richard LeBouef And Two Step - Cajun In Paradise
TTITLE7=Richard LeBouef And Two Step - Mermentau Waltz
TTITLE8=Richard LeBouef And Two Step - The Lottery Song
TTITLE9=Richard LeBouef And Two Step - The Louisiana Waltz
TTITLE10=Richard LeBouef And Two Step - Whoop Look At That
TTITLE11=Richard LeBouef And Two Step - Love Will Never Break Out Heart
TTITLE12=Richard LeBouef And Two Step - Little Hours Of The Night
TTITLE13=Richard LeBouef And Two Step - A Night At The Wheel
EXTD=
EXTT0=
EXTT1=
EXTT2=
EXTT3=
EXTT4=
EXTT5=
EXTT6=
EXTT7=
EXTT8=
EXTT9=
EXTT10=
EXTT11=
EXTT12=
EXTT13=
PLAYORDER=
